<svg fill="#000000" xmlns="http://www.w3.org/2000/svg"  viewBox="0 0 80 80" width="80px" height="80px"><path d="M 16 11 L 16 73 L 32 73 A 5 5 0 0 0 37 68 L 37 59 C 40.7 59.08 53.000234 58.840078 61.490234 52.830078 L 61.630859 52.720703 A 21.28 21.28 0 0 0 63.910156 50.900391 C 68.000156 47.100391 70 42.08 70 36 C 70 11.29 48.22 11 48 11 L 16 11 z M 18 13 L 36.779297 13 A 1 1 0 0 0 37.259766 13.470703 A 1.09 1.09 0 0 0 37.650391 13.550781 A 1 1 0 0 0 38.529297 13 L 48 13 A 22.05 22.05 0 0 1 57.060547 15.320312 A 1 1 0 0 0 57.849609 15.990234 L 58 15.990234 A 1 1 0 0 0 58.240234 15.990234 C 63.160234 18.860234 68 24.61 68 36 A 19.8 19.8 0 0 1 66.789062 43 A 1 1 0 0 0 66.160156 44.480469 A 16.66 16.66 0 0 1 62.539062 49.410156 C 53.779062 57.690156 37.259141 57.06 36.119141 57 A 1 1 0 0 0 35.900391 56.560547 A 1 1 0 1 0 34.429688 57.910156 A 0.94 0.94 0 0 0 35 58.210938 L 35 68 A 3 3 0 0 1 32 71 L 18 71 L 18 50.179688 A 1 1 0 0 0 18.779297 48.550781 A 1 1 0 0 0 18 48.199219 L 18 38.359375 A 1 1 0 0 0 18 36.640625 L 18 23.339844 A 1.19 1.19 0 0 0 18.230469 23.179688 A 1 1 0 0 0 18.179688 21.769531 A 0.67 0.67 0 0 0 18 21.660156 L 18 13 z M 41.212891 13.351562 A 1 1 0 0 0 40.740234 15.210938 A 1 1 0 0 0 41.230469 15.349609 A 1 1 0 1 0 41.212891 13.351562 z M 26.503906 13.730469 A 1 1 0 0 0 26.039062 13.830078 A 1 1 0 0 0 26.490234 15.730469 A 1 1 0 0 0 26.503906 13.730469 z M 44.515625 15.550781 A 1 1 0 0 0 43.779297 15.939453 A 1 1 0 0 0 44 17.349609 A 1 1 0 0 0 44.570312 17.550781 A 1 1 0 1 0 44.515625 15.550781 z M 28.751953 16.902344 A 1 1 0 0 0 28.089844 18.640625 L 28.089844 18.650391 A 1.0008621 1.0008621 0 0 0 29.539062 17.269531 A 1 1 0 0 0 28.751953 16.902344 z M 58.626953 17.910156 A 1 1 0 0 0 58.660156 19.910156 A 1 1 0 0 0 59.029297 19.839844 A 1 1 0 0 0 58.626953 17.910156 z M 47.5 18.320312 A 1 1 0 0 0 46.669922 19.939453 A 1 1 0 0 0 47.449219 20.320312 A 1 1 0 0 0 47.5 18.320312 z M 31.824219 19.599609 A 1 1 0 0 0 31.210938 21.400391 A 1 1 0 0 0 31.810547 21.599609 A 1 1 0 0 0 32.609375 21.199219 A 1 1 0 0 0 31.824219 19.599609 z M 60.791016 21.324219 A 1.0056838 1.0056838 0 0 0 60 23 A 1 1 0 0 0 60.759766 23.359375 A 1 1 0 0 0 61.529297 21.710938 L 61.5 21.660156 A 1.0056838 1.0056838 0 0 0 60.791016 21.324219 z M 35.007812 21.705078 A 1 1 0 0 0 34.660156 23.630859 L 34.640625 23.640625 A 1 1 0 0 0 35.150391 23.779297 A 1 1 0 0 0 36 23.300781 A 1 1 0 0 0 35.660156 21.919922 A 1 1 0 0 0 35.007812 21.705078 z M 49.427734 21.810547 A 1 1 0 1 0 49.390625 23.810547 A 1.09 1.09 0 0 0 49.779297 23.730469 A 1 1 0 0 0 49.427734 21.810547 z M 63.673828 24 A 1 1 0 1 0 63.679688 26 A 1 1 0 0 0 64.480469 25.589844 A 1 1 0 0 0 63.673828 24 z M 38.464844 24.089844 A 1 1 0 0 0 37.650391 24.460938 A 1 1 0 0 0 37.789062 25.859375 A 1 1 0 0 0 38.429688 26.089844 A 1 1 0 0 0 38.464844 24.089844 z M 20.458984 24.207031 A 1 1 0 0 0 19.779297 25.949219 A 1 1 0 0 0 20.449219 26.210938 A 1 1 0 0 0 21.189453 25.880859 A 1 1 0 0 0 20.458984 24.207031 z M 50.863281 25.525391 A 1 1 0 0 0 50.410156 25.630859 A 1 1 0 0 0 50.859375 27.529297 A 1 1 0 0 0 51.75 26.080078 A 1 1 0 0 0 50.863281 25.525391 z M 23.359375 26.914062 A 1 1 0 0 0 22.689453 27.220703 A 1 1 0 0 0 22.779297 28.630859 A 1 1 0 0 0 24.189453 28.539062 A 1 1 0 0 0 23.359375 26.914062 z M 41.328125 26.943359 A 1 1 0 0 0 40.5 28.529297 A 1 1 0 0 0 41.269531 28.900391 A 1 1 0 0 0 41.910156 28.660156 A 1 1 0 0 0 42.039062 27.259766 A 1 1 0 0 0 41.328125 26.943359 z M 53.097656 28.830078 A 1 1 0 0 0 52.400391 29.099609 A 1 1 0 0 0 52.259766 30.5 A 1 1 0 0 0 53.039062 30.869141 A 1 1 0 0 0 53.669922 30.640625 A 1 1 0 0 0 53.097656 28.830078 z M 26.441406 29.484375 A 1 1 0 0 0 25.849609 31.259766 A 1 1 0 0 0 26.480469 31.480469 A 1 1 0 0 0 27.25 31.119141 A 1 1 0 0 0 26.441406 29.484375 z M 43.421875 30.259766 A 1 1 0 1 0 43.419922 32.259766 A 0.91 0.91 0 0 0 43.869141 32.150391 A 1 1 0 0 0 44.310547 30.810547 A 1 1 0 0 0 43.421875 30.259766 z M 55.800781 31.773438 A 1.0019232 1.0019232 0 0 0 55.179688 33.550781 A 1 1 0 0 0 55.820312 33.740234 A 1 1 0 0 0 56.449219 32 A 1.0019232 1.0019232 0 0 0 55.800781 31.773438 z M 29.359375 32.289062 A 1 1 0 0 0 28.619141 32.599609 A 1 1 0 0 0 28.519531 34.009766 A 1 1 0 0 0 29.279297 34.349609 A 1 1 0 0 0 29.929688 34.099609 A 1 1 0 0 0 29.359375 32.289062 z M 45.070312 33.929688 A 1 1 0 0 0 44.699219 34 A 1 1 0 0 0 45.050781 35.939453 A 0.87 0.87 0 0 0 45.400391 35.869141 A 1 1 0 0 0 46 34.570312 A 1 1 0 0 0 45.070312 33.929688 z M 59.126953 34.007812 A 1 1 0 0 0 58.300781 34.429688 A 1 1 0 0 0 58.529297 35.820312 A 0.94 0.94 0 0 0 59.109375 36.009766 A 1 1 0 0 0 59.689453 34.189453 A 1 1 0 0 0 59.126953 34.007812 z M 31.748047 35.492188 A 1 1 0 0 0 31.210938 35.660156 A 1 1 0 0 0 31.830078 37.439453 A 1 1 0 0 0 32.449219 37.220703 A 1 1 0 0 0 31.748047 35.492188 z M 61.960938 36.777344 A 1.0026465 1.0026465 0 0 0 61.189453 38.410156 A 1 1 0 0 0 61.970703 38.779297 A 1 1 0 0 0 62.75 37.150391 A 1.0026465 1.0026465 0 0 0 61.960938 36.777344 z M 21.048828 37.197266 A 1 1 0 0 0 20.210938 37.630859 A 1 1 0 0 0 20.449219 39 A 1 1 0 0 0 21.029297 39.189453 A 1 1 0 0 0 21.609375 37.380859 A 1 1 0 0 0 21.048828 37.197266 z M 47 37.40625 A 1 1 0 0 0 46.359375 37.609375 A 1 1 0 0 0 46.160156 39.009766 A 1 1 0 0 0 46.970703 39.410156 A 1 1 0 0 0 47.560547 39.210938 A 1 1 0 0 0 47.769531 37.810547 A 1 1 0 0 0 47 37.40625 z M 34.203125 38.628906 A 1 1 0 0 0 33.669922 38.820312 A 1.0020978 1.0020978 0 0 0 34.849609 40.439453 A 1 1 0 0 0 35.070312 39.039062 A 1 1 0 0 0 34.203125 38.628906 z M 24.011719 39.826172 A 1.0005623 1.0005623 0 0 0 23.349609 40.119141 A 1 1 0 0 0 23.349609 41.529297 A 1 1 0 0 0 24.060547 41.820312 A 1 1 0 0 0 24.769531 41.529297 A 1.0005623 1.0005623 0 0 0 24.011719 39.826172 z M 64.441406 39.888672 A 1.0026465 1.0026465 0 0 0 63.849609 40.109375 A 1 1 0 0 0 63.710938 41.519531 A 1 1 0 0 0 64.480469 41.890625 A 1 1 0 0 0 65.109375 41.669922 A 1.0026465 1.0026465 0 0 0 64.441406 39.888672 z M 49.666016 40.353516 A 1 1 0 0 0 48.900391 40.710938 A 1 1 0 0 0 49 42.119141 A 1 1 0 0 0 49.660156 42.369141 A 1 1 0 0 0 50.400391 42 A 1 1 0 0 0 50.310547 40.589844 A 1 1 0 0 0 49.666016 40.353516 z M 36.320312 42.060547 A 1 1 0 0 0 35.769531 42.210938 A 1 1 0 1 0 37.150391 42.539062 A 1 1 0 0 0 36.320312 42.060547 z M 52.957031 42.621094 A 1 1 0 0 0 52.119141 43.060547 A 1 1 0 0 0 52.390625 44.449219 A 1 1 0 0 0 52.949219 44.619141 A 1 1 0 0 0 53.519531 42.800781 A 1 1 0 0 0 52.957031 42.621094 z M 26.128906 43.210938 A 1 1 0 0 0 26.160156 45.210938 A 1.09 1.09 0 0 0 26.550781 45.130859 A 1 1 0 0 0 27.080078 43.820312 A 1 1 0 0 0 26.128906 43.210938 z M 38.71875 45.242188 A 1 1 0 0 0 38 45.5 A 1 1 0 1 0 39.419922 45.580078 A 1 1 0 0 0 38.71875 45.242188 z M 55.626953 45.496094 A 1 1 0 0 0 55.199219 45.599609 A 1 1 0 0 0 55 47 A 1 1 0 0 0 55.779297 47.369141 A 1 1 0 0 0 56.400391 47.150391 A 1 1 0 0 0 55.626953 45.496094 z M 27.671875 46.847656 A 1 1 0 0 0 27.210938 46.990234 L 27.210938 47 A 1 1 0 0 0 26.769531 48.339844 A 1 1 0 0 0 27.660156 48.880859 A 0.91 0.91 0 0 0 28.109375 48.769531 A 1 1 0 0 0 27.671875 46.847656 z M 41.724609 47.900391 A 1 1 0 0 0 40.869141 48.330078 A 1 1 0 0 0 41.130859 49.720703 A 1 1 0 0 0 41.699219 49.900391 A 1 1 0 0 0 41.724609 47.900391 z M 57.773438 48.830078 A 1.0008996 1.0008996 0 0 0 57.439453 48.900391 A 1 1 0 0 0 57.810547 50.830078 A 0.94 0.94 0 0 0 58.179688 50.759766 A 1.0008996 1.0008996 0 0 0 57.773438 48.830078 z M 44.923828 50.171875 A 1 1 0 0 0 44.230469 50.509766 A 1 1 0 0 0 44.320312 51.919922 A 1 1 0 0 0 44.980469 52.169922 A 1 1 0 1 0 44.923828 50.171875 z M 29.826172 50.232422 A 1 1 0 0 0 29.109375 51.869141 A 1 1 0 0 0 29.880859 52.230469 A 1 1 0 0 0 30.519531 52 A 1 1 0 0 0 29.826172 50.232422 z M 19.708984 51.800781 A 1 1 0 1 0 19.710938 53.800781 A 0.91 0.91 0 0 0 20.060547 53.730469 A 1 1 0 0 0 20.640625 52.439453 A 1 1 0 0 0 19.708984 51.800781 z M 47.535156 53.185547 A 1 1 0 0 0 47 53.359375 A 1 1 0 0 0 46.740234 54.75 A 1 1 0 0 0 47.560547 55.189453 A 1.08 1.08 0 0 0 48.130859 55.019531 A 1 1 0 0 0 48.390625 53.619141 A 1 1 0 0 0 47.535156 53.185547 z M 32.595703 53.234375 A 1.0006248 1.0006248 0 0 0 31.910156 53.470703 L 31.910156 53.439453 A 1 1 0 0 0 31.789062 54.849609 A 1 1 0 0 0 32.560547 55.210938 A 1 1 0 0 0 33.199219 55 A 1.0006248 1.0006248 0 0 0 32.595703 53.234375 z M 21.564453 55.328125 A 1 1 0 0 0 21 55.509766 A 1 1 0 0 0 20.75 56.910156 A 1 1 0 0 0 21.580078 57.339844 A 1 1 0 0 0 22.140625 57.169922 A 1 1 0 0 0 22.410156 55.779297 A 1 1 0 0 0 21.564453 55.328125 z M 24.128906 58.404297 A 1 1 0 0 0 23.400391 58.699219 A 1 1 0 0 0 23.400391 60.109375 A 1.0007122 1.0007122 0 1 0 24.839844 58.720703 A 1 1 0 0 0 24.128906 58.404297 z M 27.085938 60.863281 A 1 1 0 0 0 26.669922 62.75 A 0.94 0.94 0 0 0 27.199219 62.910156 A 1 1 0 0 0 28.050781 62.449219 A 1 1 0 0 0 27.740234 61.070312 A 1 1 0 0 0 27.085938 60.863281 z M 30.359375 63.318359 A 1 1 0 0 0 29.740234 63.550781 A 1 1 0 0 0 29.609375 65 A 1 1 0 0 0 30.380859 65.359375 A 0.94 0.94 0 0 0 31.009766 65.130859 A 1 1 0 0 0 31.150391 63.679688 A 1 1 0 0 0 30.359375 63.318359 z M 31.865234 66.984375 A 1 1 0 0 0 31.650391 67 A 1.0031949 1.0031949 0 0 0 31.810547 69 L 32 69 A 1 1 0 0 0 32.820312 67.849609 A 1 1 0 0 0 31.865234 66.984375 z"/></svg>